<?xml version="1.0" encoding="utf-8"?>
<!-- Generator: Adobe Illustrator 15.0.0, SVG Export Plug-In . SVG Version: 6.00 Build 0)  -->
<!DOCTYPE svg PUBLIC "-//W3C//DTD SVG 1.1//EN" "http://www.w3.org/Graphics/SVG/1.1/DTD/svg11.dtd">
<svg version="1.1" id="レイヤー_1" xmlns="http://www.w3.org/2000/svg" xmlns:xlink="http://www.w3.org/1999/xlink" x="0px"
	 y="0px" width="340.159px" height="340.158px" viewBox="0 0 340.159 340.158" enable-background="new 0 0 340.159 340.158"
	 xml:space="preserve">
<path fill="#142951" d="M340.159,325.834c0,7.877-6.447,14.324-14.324,14.324H14.325C6.446,340.158,0,333.711,0,325.834V14.324
	C0,6.445,6.446,0,14.325,0h311.509c7.877,0,14.324,6.445,14.324,14.324V325.834z"/>
<path fill="#FFFFFF" d="M205.417,108.085c-0.047-0.881-0.807-1.602-1.688-1.602h-11.721c-0.881,0-1.781-0.697-2-1.553
	c0,0-5.768-22.492-19.928-22.492s-19.928,22.492-19.928,22.492c-0.218,0.855-1.119,1.553-2,1.553H136.43
	c-0.881,0-1.641,0.721-1.688,1.602l-4.13,78.135c-0.046,0.879,0.637,1.6,1.519,1.6h36.346c0.882,0,2.325,0,3.206,0h36.347
	c0.881,0,1.564-0.721,1.518-1.6L205.417,108.085z M156.321,104.907c0,0,3.008-16.246,13.759-16.246
	c10.698,0,13.752,16.246,13.752,16.246c0.162,0.867-0.425,1.576-1.307,1.576h-10.843c-0.881,0-2.324,0-3.206,0h-10.845
	C156.75,106.483,156.161,105.774,156.321,104.907z M186.545,165.638c-1.08,2.189-2.545,4.018-4.394,5.48
	c-1.849,1.465-4.009,2.566-6.483,3.307c-2.475,0.738-5.12,1.109-7.934,1.109c-1.906,0-3.676-0.156-5.311-0.471
	c-1.636-0.313-3.078-0.688-4.33-1.131c-1.251-0.439-2.296-0.9-3.135-1.385c-0.839-0.484-1.443-0.91-1.812-1.279
	c-0.37-0.369-0.634-0.902-0.79-1.602c-0.156-0.695-0.235-1.697-0.235-3.006c0-0.881,0.029-1.621,0.085-2.219
	c0.056-0.596,0.15-1.08,0.277-1.449c0.128-0.369,0.298-0.633,0.512-0.789s0.462-0.234,0.746-0.234c0.398,0,0.96,0.234,1.686,0.703
	s1.656,0.988,2.794,1.557c1.136,0.57,2.496,1.088,4.074,1.557c1.578,0.471,3.405,0.705,5.48,0.705c1.366,0,2.588-0.164,3.669-0.49
	c1.08-0.328,1.998-0.791,2.75-1.387c0.754-0.598,1.33-1.336,1.729-2.219c0.398-0.881,0.597-1.861,0.597-2.943
	c0-1.252-0.341-2.324-1.024-3.221c-0.682-0.896-1.57-1.691-2.665-2.389c-1.096-0.695-2.339-1.35-3.732-1.961
	c-1.394-0.611-2.83-1.26-4.309-1.941c-1.479-0.682-2.916-1.457-4.308-2.324c-1.394-0.867-2.638-1.906-3.732-3.115
	c-1.095-1.207-1.984-2.637-2.667-4.287c-0.683-1.648-1.024-3.625-1.024-5.928c0-2.645,0.491-4.969,1.472-6.975
	c0.98-2.004,2.303-3.668,3.967-4.99c1.664-1.324,3.625-2.311,5.886-2.965c2.261-0.654,4.656-0.982,7.187-0.982
	c1.308,0,2.617,0.1,3.924,0.301c1.309,0.197,2.531,0.469,3.67,0.809c1.137,0.342,2.146,0.725,3.028,1.152s1.464,0.783,1.749,1.066
	c0.283,0.285,0.476,0.527,0.576,0.725c0.1,0.199,0.184,0.463,0.255,0.789c0.071,0.328,0.121,0.74,0.149,1.238
	c0.029,0.498,0.043,1.115,0.043,1.855c0,0.824-0.021,1.521-0.064,2.09c-0.041,0.568-0.113,1.039-0.213,1.408
	s-0.241,0.639-0.427,0.809c-0.187,0.172-0.434,0.256-0.747,0.256c-0.313,0-0.81-0.197-1.492-0.596
	c-0.682-0.398-1.522-0.832-2.518-1.303c-0.994-0.469-2.147-0.895-3.454-1.277c-1.31-0.385-2.745-0.578-4.308-0.578
	c-1.224,0-2.29,0.15-3.2,0.449s-1.671,0.711-2.282,1.236c-0.611,0.527-1.067,1.158-1.365,1.898s-0.448,1.521-0.448,2.346
	c0,1.223,0.334,2.283,1.003,3.178c0.667,0.896,1.563,1.693,2.687,2.389c1.124,0.699,2.396,1.352,3.818,1.963
	c1.421,0.613,2.872,1.258,4.351,1.941c1.479,0.682,2.929,1.457,4.351,2.324s2.688,1.906,3.797,3.113
	c1.109,1.209,2.005,2.631,2.687,4.266c0.684,1.637,1.024,3.563,1.024,5.781C188.167,160.903,187.625,163.448,186.545,165.638z"/>
<g>
	<g>
		<g>
			<path fill="#FFFFFF" d="M89.274,223.624c0-3.754,2.513-5.903,5.374-5.903c1.468,0,2.648,0.682,3.42,1.469l-1.422,1.725
				c-0.561-0.514-1.15-0.877-1.953-0.877c-1.453,0-2.648,1.301-2.648,3.496c0,2.24,1.029,3.542,2.618,3.542
				c0.894,0,1.62-0.454,2.149-1.029l1.423,1.695c-0.954,1.104-2.21,1.665-3.679,1.665C91.696,229.406,89.274,227.438,89.274,223.624
				z"/>
			<path fill="#FFFFFF" d="M99.371,223.503c0-3.693,2.09-5.782,5.162-5.782s5.162,2.104,5.162,5.782c0,3.693-2.09,5.903-5.162,5.903
				S99.371,227.196,99.371,223.503z M106.939,223.503c0-2.18-0.923-3.466-2.406-3.466s-2.392,1.286-2.392,3.466
				c0,2.194,0.908,3.572,2.392,3.572S106.939,225.697,106.939,223.503z"/>
			<path fill="#FFFFFF" d="M111.785,217.933h2.754l2.801,5.389l1.105,2.497h0.075c-0.151-1.195-0.363-2.814-0.363-4.162v-3.724
				h2.573v11.262h-2.755l-2.785-5.435l-1.104-2.467h-0.076c0.121,1.256,0.348,2.801,0.348,4.162v3.739h-2.572V217.933z"/>
			<path fill="#FFFFFF" d="M123.35,217.933h2.756l2.8,5.389l1.104,2.497h0.076c-0.151-1.195-0.363-2.814-0.363-4.162v-3.724h2.573
				v11.262h-2.755l-2.785-5.435l-1.105-2.467h-0.075c0.121,1.256,0.349,2.801,0.349,4.162v3.739h-2.574V217.933z"/>
			<path fill="#FFFFFF" d="M134.916,217.933h7.144v2.24h-4.435v2.089h3.769v2.271h-3.769v2.392h4.602v2.271h-7.311V217.933z"/>
			<path fill="#FFFFFF" d="M143.938,223.624c0-3.754,2.513-5.903,5.374-5.903c1.468,0,2.648,0.682,3.42,1.469l-1.422,1.725
				c-0.561-0.514-1.15-0.877-1.953-0.877c-1.453,0-2.648,1.301-2.648,3.496c0,2.24,1.029,3.542,2.618,3.542
				c0.894,0,1.62-0.454,2.149-1.029l1.423,1.695c-0.954,1.104-2.21,1.665-3.679,1.665
				C146.359,229.406,143.938,227.438,143.938,223.624z"/>
			<path fill="#FFFFFF" d="M156.729,220.173h-3.042v-2.24h8.809v2.24h-3.057v9.021h-2.71V220.173z"/>
			<path fill="#FFFFFF" d="M167.704,217.933h3.951c2.482,0,4.525,0.878,4.525,3.663c0,2.68-2.074,3.859-4.45,3.859h-1.317v3.739
				h-2.709V217.933z M171.595,223.321c1.316,0,1.953-0.62,1.953-1.726c0-1.135-0.727-1.529-2.029-1.529h-1.105v3.255H171.595z"/>
			<path fill="#FFFFFF" d="M184.19,229.194l-2.074-3.966h-1.303v3.966h-2.709v-11.262h4.133c2.406,0,4.404,0.817,4.404,3.542
				c0,1.65-0.771,2.709-1.938,3.254l2.514,4.466H184.19z M180.813,223.094h1.211c1.287,0,1.969-0.56,1.969-1.619
				s-0.682-1.408-1.969-1.408h-1.211V223.094z"/>
			<path fill="#FFFFFF" d="M188.307,223.503c0-3.693,2.09-5.782,5.162-5.782s5.162,2.104,5.162,5.782
				c0,3.693-2.09,5.903-5.162,5.903S188.307,227.196,188.307,223.503z M195.875,223.503c0-2.18-0.924-3.466-2.406-3.466
				c-1.484,0-2.393,1.286-2.393,3.466c0,2.194,0.908,3.572,2.393,3.572C194.952,227.075,195.875,225.697,195.875,223.503z"/>
			<path fill="#FFFFFF" d="M200.721,217.933h3.238c3.436,0,5.707,1.649,5.707,5.57s-2.271,5.691-5.555,5.691h-3.391V217.933z
				 M203.793,227.015c1.816,0,3.104-0.833,3.104-3.512s-1.287-3.421-3.104-3.421h-0.363v6.933H203.793z"/>
			<path fill="#FFFFFF" d="M211.696,223.896v-5.964h2.693v6.251c0,2.135,0.637,2.892,1.877,2.892c1.227,0,1.908-0.757,1.908-2.892
				v-6.251h2.604v5.964c0,3.799-1.514,5.51-4.512,5.51C213.254,229.406,211.696,227.695,211.696,223.896z"/>
			<path fill="#FFFFFF" d="M222.792,223.624c0-3.754,2.512-5.903,5.373-5.903c1.469,0,2.648,0.682,3.42,1.469l-1.422,1.725
				c-0.561-0.514-1.15-0.877-1.953-0.877c-1.453,0-2.648,1.301-2.648,3.496c0,2.24,1.029,3.542,2.619,3.542
				c0.893,0,1.619-0.454,2.148-1.029l1.424,1.695c-0.955,1.104-2.211,1.665-3.68,1.665
				C225.213,229.406,222.792,227.438,222.792,223.624z"/>
			<path fill="#FFFFFF" d="M235.583,220.173h-3.043v-2.24h8.809v2.24h-3.057v9.021h-2.709V220.173z"/>
			<path fill="#FFFFFF" d="M242.379,227.787l1.529-1.862c0.801,0.681,1.846,1.15,2.738,1.15c1,0,1.469-0.378,1.469-0.983
				c0-0.651-0.621-0.863-1.59-1.271l-1.438-0.605c-1.18-0.47-2.285-1.453-2.285-3.088c0-1.893,1.695-3.406,4.086-3.406
				c1.303,0,2.68,0.5,3.664,1.483l-1.348,1.695c-0.742-0.56-1.438-0.862-2.316-0.862c-0.832,0-1.346,0.332-1.346,0.938
				c0,0.621,0.711,0.863,1.709,1.257l1.408,0.56c1.393,0.561,2.225,1.499,2.225,3.088c0,1.877-1.574,3.527-4.299,3.527
				C245.12,229.406,243.545,228.861,242.379,227.787z"/>
		</g>
	</g>
	<g>
		<g>
			<path fill="#FFFFFF" d="M114.281,238.849h2.77l0.711,5.132l0.455,3.572h0.061c0.211-1.196,0.438-2.407,0.666-3.572l1.15-5.132
				h2.27l1.182,5.132c0.227,1.15,0.424,2.361,0.65,3.572h0.076c0.136-1.211,0.287-2.407,0.424-3.572l0.727-5.132h2.572
				l-1.952,11.262h-3.405l-1.015-4.904c-0.182-0.862-0.333-1.771-0.438-2.618h-0.076c-0.137,0.848-0.272,1.756-0.439,2.618
				l-0.983,4.904h-3.345L114.281,238.849z"/>
			<path fill="#FFFFFF" d="M129.525,238.849h2.709v11.262h-2.709V238.849z"/>
			<path fill="#FFFFFF" d="M137.003,241.089h-3.042v-2.24h8.809v2.24h-3.057v9.021h-2.71V241.089z"/>
			<path fill="#FFFFFF" d="M144.512,238.849h2.709v4.284h3.709v-4.284h2.68v11.262h-2.68v-4.632h-3.709v4.632h-2.709V238.849z"/>
			<path fill="#FFFFFF" d="M158.983,248.703l1.528-1.862c0.803,0.681,1.848,1.15,2.74,1.15c0.999,0,1.469-0.378,1.469-0.983
				c0-0.651-0.621-0.863-1.59-1.271l-1.438-0.605c-1.182-0.47-2.286-1.453-2.286-3.088c0-1.893,1.695-3.406,4.087-3.406
				c1.302,0,2.68,0.5,3.663,1.483l-1.347,1.695c-0.742-0.56-1.438-0.862-2.316-0.862c-0.832,0-1.348,0.332-1.348,0.938
				c0,0.621,0.712,0.863,1.711,1.257l1.408,0.56c1.393,0.561,2.225,1.499,2.225,3.088c0,1.877-1.574,3.527-4.299,3.527
				C161.723,250.322,160.148,249.777,158.983,248.703z"/>
			<path fill="#FFFFFF" d="M169.368,238.849h2.71v4.284h3.707v-4.284h2.68v11.262h-2.68v-4.632h-3.707v4.632h-2.71V238.849z"/>
			<path fill="#FFFFFF" d="M180.571,244.419c0-3.693,2.088-5.782,5.162-5.782c3.072,0,5.16,2.104,5.16,5.782
				c0,3.693-2.088,5.903-5.16,5.903C182.659,250.322,180.571,248.112,180.571,244.419z M188.139,244.419
				c0-2.18-0.924-3.466-2.406-3.466c-1.484,0-2.393,1.286-2.393,3.466c0,2.194,0.908,3.572,2.393,3.572
				C187.215,247.991,188.139,246.613,188.139,244.419z"/>
			<path fill="#FFFFFF" d="M192.983,238.849h3.951c2.482,0,4.525,0.878,4.525,3.663c0,2.68-2.072,3.859-4.449,3.859h-1.316v3.739
				h-2.711V238.849z M196.874,244.237c1.316,0,1.953-0.62,1.953-1.726c0-1.135-0.727-1.529-2.029-1.529h-1.104v3.255H196.874z"/>
			<path fill="#FFFFFF" d="M203.383,238.849h2.709v11.262h-2.709V238.849z"/>
			<path fill="#FFFFFF" d="M208.682,238.849h7.189v2.24h-4.48v2.468h3.846v2.255h-3.846v4.299h-2.709V238.849z"/>
			<path fill="#FFFFFF" d="M219.778,246.129l-3.391-7.28h2.877l0.938,2.497c0.303,0.848,0.59,1.635,0.908,2.514h0.061
				c0.318-0.879,0.621-1.666,0.939-2.514l0.938-2.497h2.83l-3.404,7.28v3.981h-2.695V246.129z"/>
		</g>
	</g>
</g>
</svg>
