<?xml version="1.0" encoding="utf-8"?>
<!-- Generator: Adobe Illustrator 15.0.0, SVG Export Plug-In . SVG Version: 6.00 Build 0)  -->
<!DOCTYPE svg PUBLIC "-//W3C//DTD SVG 1.1//EN" "http://www.w3.org/Graphics/SVG/1.1/DTD/svg11.dtd">
<svg version="1.1" id="レイヤー_1" focusable="false"
	 xmlns="http://www.w3.org/2000/svg" xmlns:xlink="http://www.w3.org/1999/xlink" x="0px" y="0px" width="581.25px"
	 height="581.25px" viewBox="109.375 9.375 581.25 581.25" enable-background="new 109.375 9.375 581.25 581.25"
	 xml:space="preserve">
<path fill="#FFFFFF" d="M633.625,300c0,129.027-104.598,233.625-233.625,233.625c-129.028,0-233.625-104.598-233.625-233.625
	c0-129.028,104.597-233.625,233.625-233.625C529.027,66.375,633.625,170.972,633.625,300z"/>
<path fill="#79B656" d="M690.625,300c0,160.508-130.117,290.625-290.625,290.625c-160.508,0-290.625-130.117-290.625-290.625
	C109.375,139.492,239.492,9.375,400,9.375C560.508,9.375,690.625,139.492,690.625,300z M366.384,453.884l215.625-215.625
	c7.321-7.322,7.321-19.194,0-26.516l-26.517-26.516c-7.321-7.323-19.193-7.323-26.517,0l-175.851,175.85l-82.101-82.101
	c-7.322-7.322-19.194-7.322-26.517,0l-26.516,26.516c-7.322,7.322-7.322,19.194,0,26.517l121.875,121.875
	C347.189,461.205,359.061,461.205,366.384,453.884L366.384,453.884z"/>
</svg>
