<?xml version="1.0" encoding="utf-8"?>
<!-- Generator: Adobe Illustrator 15.0.0, SVG Export Plug-In . SVG Version: 6.00 Build 0)  -->
<!DOCTYPE svg PUBLIC "-//W3C//DTD SVG 1.1//EN" "http://www.w3.org/Graphics/SVG/1.1/DTD/svg11.dtd">
<svg version="1.1" id="レイヤー_1" focusable="false"
	 xmlns="http://www.w3.org/2000/svg" xmlns:xlink="http://www.w3.org/1999/xlink" x="0px" y="0px" width="580.308px"
	 height="581.25px" viewBox="109.375 9.375 580.308 581.25" enable-background="new 109.375 9.375 580.308 581.25"
	 xml:space="preserve">
<path fill="#FFFFFF" d="M636.625,300c0,129.027-104.598,233.625-233.625,233.625c-129.028,0-233.625-104.598-233.625-233.625
	c0-129.028,104.597-233.625,233.625-233.625C532.027,66.375,636.625,170.972,636.625,300z"/>
<path fill="#FF0000" d="M690.625,300c0,160.543-130.129,290.625-290.625,290.625c-160.497,0-290.625-130.082-290.625-290.625
	C109.375,139.55,239.503,9.375,400,9.375C560.496,9.375,690.625,139.55,690.625,300z M400,358.594
	c-29.771,0-53.906,24.135-53.906,53.906s24.135,53.906,53.906,53.906s53.906-24.135,53.906-53.906S429.771,358.594,400,358.594z
	 M348.821,164.829l8.693,159.375c0.407,7.458,6.573,13.296,14.042,13.296h56.89c7.468,0,13.635-5.838,14.041-13.296l8.693-159.375
	c0.439-8.056-5.975-14.829-14.042-14.829h-74.277C354.794,150,348.381,156.773,348.821,164.829L348.821,164.829z"/>
</svg>
