<?xml version="1.0" encoding="utf-8"?>
<!-- Generator: Adobe Illustrator 15.0.0, SVG Export Plug-In . SVG Version: 6.00 Build 0)  -->
<!DOCTYPE svg PUBLIC "-//W3C//DTD SVG 1.1//EN" "http://www.w3.org/Graphics/SVG/1.1/DTD/svg11.dtd">
<svg version="1.1" id="Laag_1" xmlns="http://www.w3.org/2000/svg" xmlns:xlink="http://www.w3.org/1999/xlink" x="0px" y="0px"
	 width="151.333px" height="169.333px" viewBox="-3.43 124.479 151.333 169.333"
	 enable-background="new -3.43 124.479 151.333 169.333" xml:space="preserve">
<g>
	<path fill="#8DB849" d="M66.267,131.914c1.19,0,1.786,0.595,2.977,1.189c-7.144,2.977-14.287,10.715-17.858,27.383l-13.096,3.571
		C42.456,152.152,50.79,131.914,66.267,131.914z M72.815,137.865c1.19,3.572,2.381,7.739,2.381,14.287c0,0.596,0,0.596,0,1.19
		l-17.263,4.763C61.504,145.605,67.457,140.248,72.815,137.865z M88.292,148.58l-7.739,2.383c0-0.596,0-1.19,0-1.786
		c0-5.356-0.595-9.524-1.786-13.097C82.935,137.271,86.506,142.629,88.292,148.58z M126.985,158.106c0-0.596-0.595-1.19-1.19-1.19
		c-1.191,0-13.692-1.19-13.692-1.19s-8.929-8.929-10.12-9.524c-1.19-1.189-2.977-0.595-3.572-0.595c0,0-1.786,0.595-4.762,1.785
		c-2.976-8.334-8.334-16.071-17.263-16.071h-0.595c-2.381-3.572-5.953-4.763-8.929-4.763c-21.43-0.597-31.55,26.19-35.122,39.884
		c-4.762,1.19-9.524,2.977-14.882,4.762c-4.762,1.19-4.762,1.787-5.357,5.953C10.906,180.132-1,274.186-1,274.186l94.649,17.857
		l51.194-11.309C144.844,280.734,126.985,159.297,126.985,158.106z"/>
	<path fill="#5A863E" d="M125.199,156.914c-0.595,0-13.096-1.189-13.096-1.189s-8.929-8.93-10.12-9.523
		c-0.595-0.596-0.595-0.596-1.19-0.596l-7.144,146.438l51.194-11.309c0,0-17.858-121.439-17.858-122.629
		C126.985,157.511,125.795,156.914,125.199,156.914"/>
	<path fill="#FFFFFE" d="M76.386,185.488l-6.548,19.049c0,0-5.357-2.977-12.501-2.977c-10.12,0-10.715,5.953-10.715,7.738
		c0,8.334,22.621,11.906,22.621,32.146c0,16.072-10.12,26.191-23.812,26.191c-16.072,0-24.406-10.119-24.406-10.119l4.167-14.287
		c0,0,8.334,7.145,15.477,7.145c4.762,0,6.548-3.572,6.548-6.549c0-11.311-18.454-11.906-18.454-30.358
		c0-15.478,11.31-30.36,33.335-30.36C72.219,182.513,76.386,185.488,76.386,185.488"/>
</g>
</svg>
